<?xml version="1.0"?>
<svg  viewBox="0 0 512 512" width="20" height="20" xmlns="http://www.w3.org/2000/svg" xmlns:svg="http://www.w3.org/2000/svg">
 <g class="layer">
  <title>Layer 1</title>
  <path d="m257,86c-115.91,0 -214.9,69.53 -255,167.68c40.1,98.15 139.09,167.68 255,167.68c116.03,0 214.9,-69.53 255,-167.68c-40.1,-98.15 -138.98,-167.68 -255,-167.68zm0,279.47c-63.98,0 -115.91,-50.08 -115.91,-111.79s51.93,-111.79 115.91,-111.79s115.91,50.08 115.91,111.79s-51.93,111.79 -115.91,111.79zm0,-178.86c-38.37,0 -69.55,30.07 -69.55,67.07s31.18,67.07 69.55,67.07s69.55,-30.07 69.55,-67.07s-31.18,-67.07 -69.55,-67.07z" id="svg_2"/>
 </g>
</svg>