<?xml version="1.0" encoding="UTF-8"?>
<!DOCTYPE svg PUBLIC "-//W3C//DTD SVG 1.1//EN" "http://www.w3.org/Graphics/SVG/1.1/DTD/svg11.dtd">
<svg xmlns="http://www.w3.org/2000/svg" version="1.1" width="536px" height="290px" style="shape-rendering:geometricPrecision; text-rendering:geometricPrecision; image-rendering:optimizeQuality; fill-rule:evenodd; clip-rule:evenodd" xmlns:xlink="http://www.w3.org/1999/xlink">
    <g>
        <path style="opacity:1" fill="#ffc30b" d="M 266.5,-0.5 C 267.167,-0.5 267.833,-0.5 268.5,-0.5C 278.04,4.53795 285.54,11.8713 291,21.5C 303.464,45.0951 314.297,69.4285 323.5,94.5C 384.497,95.3333 445.497,95.8333 506.5,96C 516.368,96.3949 524.868,99.8949 532,106.5C 535.062,113.961 534.062,120.961 529,127.5C 521.781,136.353 513.614,144.186 504.5,151C 492.5,159.667 480.5,168.333 468.5,177C 464.55,183.865 463.383,191.032 465,198.5C 467.748,203.666 470.748,208.666 474,213.5C 492.876,227.37 510.876,242.37 528,258.5C 530.523,262.233 533.023,265.899 535.5,269.5C 535.5,271.833 535.5,274.167 535.5,276.5C 533.71,280.453 530.71,283.286 526.5,285C 520.11,286.84 513.776,288.34 507.5,289.5C 347.5,289.5 187.5,289.5 27.5,289.5C 19.0983,288.561 11.0983,286.061 3.5,282C 1.5313,280.5 0.197963,278.667 -0.5,276.5C -0.5,274.167 -0.5,271.833 -0.5,269.5C 3.83569,261.723 9.50236,254.89 16.5,249C 31.045,236.787 45.8783,224.953 61,213.5C 66.2507,207.166 69.7507,199.999 71.5,192C 70.6388,186.75 68.9722,181.75 66.5,177C 49.5997,165.435 33.2664,153.102 17.5,140C 8.73569,133.085 3.06902,124.252 0.5,113.5C 1.36981,107.797 4.36981,103.631 9.5,101C 14.933,98.5582 20.5997,96.8915 26.5,96C 88.1694,95.8333 149.836,95.3333 211.5,94.5C 220.703,69.4285 231.536,45.0951 244,21.5C 249.46,11.8713 256.96,4.53795 266.5,-0.5 Z M 220.5,157.5 C 226.114,157.649 231.114,159.482 235.5,163C 245.836,173.497 254.836,184.997 262.5,197.5C 265.833,200.167 269.167,200.167 272.5,197.5C 280.164,184.997 289.164,173.497 299.5,163C 304.847,158.32 310.847,156.987 317.5,159C 323.061,164.364 324.895,170.864 323,178.5C 317.916,195.004 310.916,210.67 302,225.5C 294.209,238.918 286.042,252.085 277.5,265C 270.833,265.667 264.167,265.667 257.5,265C 242.401,242.532 228.901,219.032 217,194.5C 212.095,184.909 210.762,174.909 213,164.5C 214.767,161.228 217.267,158.895 220.5,157.5 Z M 139.5,167.5 C 157.269,168.214 167.269,177.381 169.5,195C 168.197,211.802 159.197,221.302 142.5,223.5C 125.734,221.901 116.401,212.734 114.5,196C 115.814,180.135 124.148,170.635 139.5,167.5 Z M 391.5,167.5 C 409.256,168.756 418.922,178.256 420.5,196C 416.533,217.642 403.867,225.975 382.5,221C 368.072,212.726 363.239,200.559 368,184.5C 372.938,174.716 380.771,169.049 391.5,167.5 Z"/>
    </g>
</svg>
