<?xml version="1.0"?>
<svg viewBox="0 0 512 512" height="20px" width="20px" xmlns="http://www.w3.org/2000/svg" xmlns:svg="http://www.w3.org/2000/svg">
 <g class="layer">
  <title>Layer 1</title>
  <path d="m495.98,89.05c19.92,-19.92 19.92,-52.27 0,-72.18s-52.27,-19.92 -72.18,0l-167.79,167.95l-167.95,-167.79c-19.92,-19.92 -52.27,-19.92 -72.18,0s-19.92,52.27 0,72.18l167.95,167.79l-167.79,167.95c-19.92,19.92 -19.92,52.27 0,72.18s52.27,19.92 72.18,0l167.79,-167.95l167.95,167.79c19.92,19.92 52.27,19.92 72.18,0s19.92,-52.27 0,-72.18l-167.95,-167.79l167.79,-167.95z" id="svg_1"/>
 </g>
</svg>
